<svg xmlns="http://www.w3.org/2000/svg" viewBox="0 0 900 600" role="img" aria-labelledby="galleryTitle galleryDesc">
  <title id="galleryTitle">Galería de bar con terraza</title>
  <desc id="galleryDesc">Ilustración de una terraza de bar con luces y cocteles para ambientar la experiencia.</desc>
  <defs>
    <linearGradient id="bgGrad" x1="0" y1="0" x2="0" y2="1">
      <stop offset="0%" stop-color="#18183b"/>
      <stop offset="100%" stop-color="#121226"/>
    </linearGradient>
    <radialGradient id="lightGrad" cx="50%" cy="20%" r="50%">
      <stop offset="0%" stop-color="#ffe9b3" stop-opacity="0.85"/>
      <stop offset="100%" stop-color="#ffe9b3" stop-opacity="0"/>
    </radialGradient>
  </defs>
  <rect width="900" height="600" fill="url(#bgGrad)"/>
  <circle cx="240" cy="120" r="60" fill="url(#lightGrad)"/>
  <circle cx="520" cy="100" r="50" fill="url(#lightGrad)"/>
  <circle cx="760" cy="130" r="40" fill="url(#lightGrad)"/>
  <rect x="80" y="300" width="720" height="220" rx="30" fill="#1f203a"/>
  <rect x="150" y="340" width="140" height="90" rx="18" fill="#302f55"/>
  <rect x="350" y="340" width="140" height="90" rx="18" fill="#302f55"/>
  <rect x="550" y="340" width="140" height="90" rx="18" fill="#302f55"/>
  <rect x="260" y="260" width="380" height="40" rx="20" fill="#2e2c54"/>
  <path d="M280 250 C300 180 380 180 420 250" fill="none" stroke="#ffd89e" stroke-width="12" stroke-linecap="round"/>
  <path d="M500 250 C520 180 580 180 600 250" fill="none" stroke="#ffd89e" stroke-width="12" stroke-linecap="round"/>
  <g transform="translate(170 360)">
    <rect x="0" y="0" width="60" height="90" rx="18" fill="#f2c572"/>
    <path d="M30 0 L20 -40 Q30 -60 40 -40 Z" fill="#fff2c1"/>
    <circle cx="30" cy="20" r="12" fill="#fff8ba"/>
  </g>
  <g transform="translate(410 360)">
    <rect x="0" y="0" width="60" height="90" rx="18" fill="#d97a6f"/>
    <path d="M30 0 L20 -40 Q30 -60 40 -40 Z" fill="#ffd1bb"/>
    <circle cx="30" cy="20" r="12" fill="#ffd6a6"/>
  </g>
  <g transform="translate(640 360)">
    <rect x="0" y="0" width="60" height="90" rx="18" fill="#97c4a5"/>
    <path d="M30 0 L20 -40 Q30 -60 40 -40 Z" fill="#dff0da"/>
    <circle cx="30" cy="20" r="12" fill="#e7f6e8"/>
  </g>
</svg>
