<svg xmlns="http://www.w3.org/2000/svg" viewBox="0 0 900 600" role="img" aria-labelledby="heroTitle heroDesc">
  <title id="heroTitle">Bar de terraza nocturna</title>
  <desc id="heroDesc">Ilustración de terraza de bar con mesas, coctel y vista de ciudad.</desc>
  <defs>
    <linearGradient id="skyGrad" x1="0" y1="0" x2="0" y2="1">
      <stop offset="0%" stop-color="#2d2c41"/>
      <stop offset="100%" stop-color="#0f111d"/>
    </linearGradient>
    <linearGradient id="drinkGrad" x1="0" y1="0" x2="1" y2="1">
      <stop offset="0%" stop-color="#ffc85c"/>
      <stop offset="100%" stop-color="#ff6f61"/>
    </linearGradient>
  </defs>
  <rect width="900" height="600" fill="url(#skyGrad)"/>
  <rect x="40" y="360" width="820" height="220" rx="30" fill="#141524" opacity="0.95"/>
  <rect x="70" y="400" width="240" height="120" rx="18" fill="#1d1f34"/>
  <rect x="560" y="380" width="160" height="140" rx="18" fill="#1d1f34"/>
  <rect x="300" y="420" width="280" height="100" rx="20" fill="#232541"/>
  <circle cx="250" cy="450" r="14" fill="#ffce7a"/>
  <circle cx="610" cy="430" r="14" fill="#ffce7a"/>
  <circle cx="680" cy="430" r="14" fill="#ffce7a"/>
  <path d="M160 420 C170 370 210 340 260 360 C310 380 340 430 300 450 C270 340 180 400 160 420 Z" fill="#3d3f5b"/>
  <rect x="150" y="290" width="84" height="120" rx="16" fill="#15182f"/>
  <rect x="454" y="225" width="120" height="190" rx="16" fill="#15182f"/>
  <rect x="624" y="250" width="90" height="165" rx="16" fill="#15182f"/>
  <rect x="730" y="285" width="80" height="130" rx="16" fill="#15182f"/>
  <path d="M520 460 L540 360 L570 360 L590 460 Z" fill="#ffd87c" opacity="0.25"/>
  <g transform="translate(240 320)">
    <rect x="0" y="0" width="170" height="110" rx="20" fill="#f2f0e8" opacity="0.15"/>
    <rect x="-40" y="-130" width="100" height="140" rx="26" fill="#d8b16a"/>
    <circle cx="10" cy="-80" r="35" fill="url(#drinkGrad)"/>
    <path d="M10 -45 L10 -130" stroke="#ff8c5c" stroke-width="8" stroke-linecap="round"/>
    <path d="M-10 -85 Q10 -105 30 -85" fill="none" stroke="#fff4c2" stroke-width="6"/>
  </g>
</svg>
