<svg xmlns="http://www.w3.org/2000/svg" viewBox="0 0 1200 760">
  <defs>
    <linearGradient id="bg" x1="0" y1="0" x2="1" y2="1"><stop stop-color="#201a33"/><stop offset=".55" stop-color="#43203c"/><stop offset="1" stop-color="#0b1018"/></linearGradient>
    <radialGradient id="sun" cx="72%" cy="20%" r="45%"><stop stop-color="#ffd891" stop-opacity=".75"/><stop offset="1" stop-color="#ffd891" stop-opacity="0"/></radialGradient>
  </defs>
  <rect width="1200" height="760" fill="url(#bg)"/>
  <rect width="1200" height="760" fill="url(#sun)"/>
  <path d="M0 510h1200v250H0z" fill="#0e0d15"/>
  <path d="M50 518c80-84 183-117 302-99 78 12 125 50 204 32 124-28 190-137 316-117 112 18 187 111 278 184" fill="none" stroke="#f6c76b" stroke-width="8" opacity=".45"/>
  <g opacity=".85">
    <rect x="100" y="180" width="92" height="330" rx="18" fill="#171523"/><rect x="120" y="205" width="52" height="36" rx="8" fill="#ffd891" opacity=".65"/><rect x="120" y="265" width="52" height="36" rx="8" fill="#f06d5f" opacity=".55"/><rect x="120" y="325" width="52" height="36" rx="8" fill="#ffd891" opacity=".42"/>
    <rect x="240" y="130" width="120" height="380" rx="22" fill="#181626"/><rect x="266" y="166" width="68" height="42" rx="8" fill="#f6c76b" opacity=".55"/><rect x="266" y="236" width="68" height="42" rx="8" fill="#f06d5f" opacity=".5"/><rect x="266" y="306" width="68" height="42" rx="8" fill="#f6c76b" opacity=".45"/>
    <rect x="900" y="210" width="160" height="300" rx="24" fill="#171523"/><rect x="930" y="246" width="100" height="42" rx="8" fill="#ffd891" opacity=".5"/><rect x="930" y="326" width="100" height="42" rx="8" fill="#f06d5f" opacity=".45"/>
  </g>
  <g transform="translate(580 305)">
    <path d="M0 0h210l-48 150H48z" fill="#fff" opacity=".9"/>
    <path d="M35 20h140l-31 97H66z" fill="#f06d5f" opacity=".75"/>
    <path d="M105 150v96M55 246h100" stroke="#fff" stroke-width="18" stroke-linecap="round"/>
    <circle cx="160" cy="8" r="34" fill="#f6c76b"/>
  </g>
</svg>
